# xmcd
#
# Track frame offsets:
#	150
#	3686
#	23603
#	38828
#	58154
#	77605
#	83233
#	98901
#	113626
#	135179
#	154294
#	161851
#	178136
#	202342
#	220823
#	240977
#	257968
#	277395
#	295429
#	330948
#
# Disc length: 4425 seconds
#
# Revision: 4
# Processed by: cddbd v1.5.2PL0 Copyright (c) Steve Scherf et al.
# Submitted via: audiograbber 1.83.01
#
DISCID=22114714
DTITLE=Loon - Loon
DYEAR=2003
DGENRE=Rap
TTITLE0=P. Diddy - P. Diddy Intro
TTITLE1=Loon, Kelis - How You Want That
TTITLE2=Loon, Trina - Do What You Like 
TTITLE3=Loon - Relax Your Mind
TTITLE4=Loon, Mario Winans - Down For Me 
TTITLE5=Loon - Barbershop (Interlude)
TTITLE6=Loon - This Ain't Funny
TTITLE7=Loon - Story
TTITLE8=Loon, Tammy - Between Us 
TTITLE9=Loon, Clauette Ortiz - Like A Movie 
TTITLE10=Loon - Pimpin' Ken (Interlude)
TTITLE11=Loon, Missy - Hey Woo 
TTITLE12=Loon, P. Diddy, Joe Hooker - Can't Talk To Her 
TTITLE13=Loon, Aaron Hall - Things You Do 
TTITLE14=Loon - Don't Wanna Die
TTITLE15=Loon, The Letter M - Waiting 
TTITLE16=Loon - You Don't Know
TTITLE17=Loon - Friday Night
TTITLE18=Loon, Carl Thomas - I'll Be There 
TTITLE19=Loon - Data
EXTD=www.RapMusicGuide.com
EXTT0=
EXTT1=
EXTT2=
EXTT3=
EXTT4=
EXTT5=
EXTT6=
EXTT7=
EXTT8=
EXTT9=
EXTT10=
EXTT11=
EXTT12=
EXTT13=
EXTT14=
EXTT15=
EXTT16=
EXTT17=
EXTT18=
EXTT19=
PLAYORDER=
